<svg xmlns="http://www.w3.org/2000/svg" viewBox="0 0 1020 130" width="1020" height="130">
	<defs>
		<marker id="al" viewBox="0 0 10 7" refX="10" refY="3.5" markerWidth="10" markerHeight="7" orient="auto-start-reverse">
			<polygon points="0 0, 10 3.5, 0 7" fill="#6b7280"/>
		</marker>
	</defs>
	<rect x="0" y="35" width="110" height="52" rx="8" fill="#eff6ff" stroke="#3b82f6" stroke-width="1.5"/>
	<text x="55" y="66" text-anchor="middle" font-family="system-ui,sans-serif" font-size="13" font-weight="600" fill="#1e40af">Client Call</text>
	<line x1="115" y1="61" x2="148" y2="61" stroke="#6b7280" stroke-width="1.5" marker-end="url(#al)"/>
	<rect x="153" y="35" width="110" height="52" rx="8" fill="#fef3c7" stroke="#f59e0b" stroke-width="1.5"/>
	<text x="208" y="66" text-anchor="middle" font-family="system-ui,sans-serif" font-size="13" font-weight="600" fill="#92400e">Middleware</text>
	<line x1="268" y1="61" x2="301" y2="61" stroke="#6b7280" stroke-width="1.5" marker-end="url(#al)"/>
	<rect x="306" y="35" width="120" height="52" rx="8" fill="#f0fdf4" stroke="#22c55e" stroke-width="1.5"/>
	<text x="366" y="58" text-anchor="middle" font-family="system-ui,sans-serif" font-size="12" font-weight="600" fill="#166534">Validate</text>
	<text x="366" y="74" text-anchor="middle" font-family="system-ui,sans-serif" font-size="12" font-weight="600" fill="#166534">Input</text>
	<line x1="431" y1="61" x2="464" y2="61" stroke="#6b7280" stroke-width="1.5" marker-end="url(#al)"/>
	<rect x="469" y="35" width="120" height="52" rx="8" fill="#fef3c7" stroke="#f59e0b" stroke-width="1.5"/>
	<text x="529" y="58" text-anchor="middle" font-family="system-ui,sans-serif" font-size="12" font-weight="600" fill="#92400e">Validated</text>
	<text x="529" y="74" text-anchor="middle" font-family="system-ui,sans-serif" font-size="12" font-weight="600" fill="#92400e">Middleware</text>
	<line x1="594" y1="61" x2="627" y2="61" stroke="#6b7280" stroke-width="1.5" marker-end="url(#al)"/>
	<rect x="632" y="35" width="120" height="52" rx="8" fill="#faf5ff" stroke="#a855f7" stroke-width="1.5"/>
	<text x="692" y="66" text-anchor="middle" font-family="system-ui,sans-serif" font-size="13" font-weight="600" fill="#6b21a8">Server Code</text>
	<line x1="757" y1="61" x2="790" y2="61" stroke="#6b7280" stroke-width="1.5" marker-end="url(#al)"/>
	<rect x="795" y="35" width="120" height="52" rx="8" fill="#f0fdf4" stroke="#22c55e" stroke-width="1.5"/>
	<text x="855" y="58" text-anchor="middle" font-family="system-ui,sans-serif" font-size="12" font-weight="600" fill="#166534">Validate</text>
	<text x="855" y="74" text-anchor="middle" font-family="system-ui,sans-serif" font-size="12" font-weight="600" fill="#166534">Output</text>
	<text x="55" y="108" text-anchor="middle" font-family="system-ui,sans-serif" font-size="10" fill="#6b7280">Client</text>
	<text x="560" y="20" text-anchor="middle" font-family="system-ui,sans-serif" font-size="10" fill="#6b7280">Server</text>
	<line x1="134" y1="8" x2="134" y2="122" stroke="#d1d5db" stroke-width="1" stroke-dasharray="4 3"/>
</svg>
