<svg xmlns="http://www.w3.org/2000/svg" viewBox="0 0 680 250" width="680" height="250">
	<defs>
		<marker id="mf-d" viewBox="0 0 10 7" refX="10" refY="3.5" markerWidth="10" markerHeight="7" orient="auto-start-reverse">
			<polygon points="0 0, 10 3.5, 0 7" fill="#9ca3af"/>
		</marker>
	</defs>
	<text x="80" y="16" text-anchor="middle" font-family="system-ui,sans-serif" font-size="11" font-weight="600" fill="#94a3b8">Logging MW</text>
	<text x="280" y="16" text-anchor="middle" font-family="system-ui,sans-serif" font-size="11" font-weight="600" fill="#94a3b8">Auth MW</text>
	<text x="480" y="16" text-anchor="middle" font-family="system-ui,sans-serif" font-size="11" font-weight="600" fill="#94a3b8">Server Code</text>
	<line x1="80" y1="24" x2="80" y2="240" stroke="#4b5563" stroke-width="1" stroke-dasharray="4 3"/>
	<line x1="280" y1="24" x2="280" y2="240" stroke="#4b5563" stroke-width="1" stroke-dasharray="4 3"/>
	<line x1="480" y1="24" x2="480" y2="240" stroke="#4b5563" stroke-width="1" stroke-dasharray="4 3"/>
	<rect x="20" y="36" width="120" height="28" rx="6" fill="#422006" stroke="#fbbf24" stroke-width="1"/>
	<text x="80" y="55" text-anchor="middle" font-family="system-ui,sans-serif" font-size="10" fill="#fde68a">console.log(start)</text>
	<line x1="145" y1="60" x2="218" y2="80" stroke="#9ca3af" stroke-width="1.5" marker-end="url(#mf-d)"/>
	<text x="185" y="68" font-family="system-ui,sans-serif" font-size="9" fill="#9ca3af">next()</text>
	<rect x="220" y="84" width="120" height="28" rx="6" fill="#1e3a5f" stroke="#60a5fa" stroke-width="1"/>
	<text x="280" y="103" text-anchor="middle" font-family="system-ui,sans-serif" font-size="10" fill="#93c5fd">getSession()</text>
	<line x1="345" y1="108" x2="418" y2="128" stroke="#9ca3af" stroke-width="1.5" marker-end="url(#mf-d)"/>
	<text x="395" y="114" font-family="system-ui,sans-serif" font-size="9" fill="#9ca3af">next({ctx})</text>
	<rect x="420" y="132" width="120" height="28" rx="6" fill="#3b0764" stroke="#c084fc" stroke-width="1"/>
	<text x="480" y="151" text-anchor="middle" font-family="system-ui,sans-serif" font-size="10" fill="#d8b4fe">return { data }</text>
	<line x1="418" y1="168" x2="345" y2="188" stroke="#4ade80" stroke-width="1.5" marker-end="url(#mf-d)"/>
	<text x="395" y="182" font-family="system-ui,sans-serif" font-size="9" fill="#4ade80">result</text>
	<rect x="220" y="192" width="120" height="28" rx="6" fill="#1e3a5f" stroke="#60a5fa" stroke-width="1"/>
	<text x="280" y="211" text-anchor="middle" font-family="system-ui,sans-serif" font-size="10" fill="#93c5fd">return result</text>
	<line x1="218" y1="216" x2="145" y2="228" stroke="#4ade80" stroke-width="1.5" marker-end="url(#mf-d)"/>
	<text x="185" y="226" font-family="system-ui,sans-serif" font-size="9" fill="#4ade80">result</text>
	<rect x="20" y="212" width="120" height="28" rx="6" fill="#422006" stroke="#fbbf24" stroke-width="1"/>
	<text x="80" y="231" text-anchor="middle" font-family="system-ui,sans-serif" font-size="10" fill="#fde68a">console.log(end)</text>
</svg>
